<svg width="164" height="119" viewBox="0 0 164 119" fill="none" xmlns="http://www.w3.org/2000/svg">
<path d="M44.24 42.24C45.04 42.24 45.68 42.56 46.16 43.2C46.68 43.84 46.94 44.66 46.94 45.66C46.94 46.34 46.74 46.98 46.34 47.58C45.94 48.14 45.38 48.62 44.66 49.02C43.3 49.74 41.72 50.34 39.92 50.82C38.12 51.26 36.46 51.48 34.94 51.48C31.74 51.48 28.94 50.86 26.54 49.62C24.18 48.38 22.36 46.62 21.08 44.34C19.8 42.02 19.16 39.3 19.16 36.18C19.16 33.18 19.78 30.52 21.02 28.2C22.26 25.88 23.98 24.08 26.18 22.8C28.38 21.48 30.88 20.82 33.68 20.82C36.36 20.82 38.7 21.42 40.7 22.62C42.74 23.78 44.32 25.46 45.44 27.66C46.56 29.82 47.12 32.36 47.12 35.28C47.12 36.16 46.9 36.84 46.46 37.32C46.06 37.76 45.48 37.98 44.72 37.98H27.92C28.2 40.34 28.92 42.06 30.08 43.14C31.24 44.18 32.9 44.7 35.06 44.7C36.22 44.7 37.26 44.56 38.18 44.28C39.1 44 40.12 43.62 41.24 43.14C41.8 42.9 42.34 42.7 42.86 42.54C43.38 42.34 43.84 42.24 44.24 42.24ZM33.92 27.06C32.2 27.06 30.82 27.62 29.78 28.74C28.74 29.82 28.12 31.4 27.92 33.48H39.5C39.38 31.36 38.84 29.76 37.88 28.68C36.96 27.6 35.64 27.06 33.92 27.06Z" fill="#FFA3A3"/>
<path d="M66.9322 20.8199C71.2522 20.8199 74.4522 21.8799 76.5322 23.9999C78.6122 26.0799 79.6522 29.2799 79.6522 33.5999V47.1599C79.6522 48.4799 79.2722 49.5199 78.5122 50.2799C77.7522 50.9999 76.6922 51.3599 75.3322 51.3599C74.0522 51.3599 73.0122 50.9799 72.2122 50.2199C71.4522 49.4199 71.0722 48.3999 71.0722 47.1599V46.7399C70.4722 48.2199 69.4722 49.3799 68.0722 50.2199C66.6722 51.0599 65.0322 51.4799 63.1522 51.4799C61.1522 51.4799 59.3322 51.0799 57.6922 50.2799C56.0922 49.4799 54.8122 48.3599 53.8522 46.9199C52.9322 45.4799 52.4722 43.8799 52.4722 42.1199C52.4722 39.9599 53.0122 38.2599 54.0922 37.0199C55.2122 35.7799 56.9922 34.8799 59.4322 34.3199C61.8722 33.7599 65.2122 33.4799 69.4522 33.4799H71.0122V32.3999C71.0122 30.7199 70.6322 29.4999 69.8722 28.7399C69.1522 27.9799 67.9322 27.5999 66.2122 27.5999C64.4922 27.5999 62.0122 28.1999 58.7722 29.3999C57.8522 29.8399 57.0722 30.0599 56.4322 30.0599C55.5522 30.0599 54.8522 29.7599 54.3322 29.1599C53.8122 28.5199 53.5522 27.6999 53.5522 26.6999C53.5522 25.8999 53.7322 25.2399 54.0922 24.7199C54.4522 24.1999 55.0322 23.7199 55.8322 23.2799C57.2322 22.5199 58.9322 21.9199 60.9322 21.4799C62.9722 21.0399 64.9722 20.8199 66.9322 20.8199ZM65.1322 45.2399C66.8922 45.2399 68.3122 44.6599 69.3922 43.4999C70.4722 42.2999 71.0122 40.7599 71.0122 38.8799V37.8599H69.9922C66.7522 37.8599 64.4722 38.1199 63.1522 38.6399C61.8722 39.1599 61.2322 40.0999 61.2322 41.4599C61.2322 42.5799 61.5922 43.4999 62.3122 44.2199C63.0722 44.8999 64.0122 45.2399 65.1322 45.2399Z" fill="#FFA3A3"/>
<path d="M97.7861 51.4799C95.3461 51.4799 93.2261 51.2799 91.4261 50.8799C89.6261 50.4799 88.0461 49.8399 86.6861 48.9599C86.0861 48.5999 85.6261 48.1199 85.3061 47.5199C84.9861 46.9199 84.8261 46.2399 84.8261 45.4799C84.8261 44.5599 85.0861 43.7999 85.6061 43.1999C86.1261 42.5599 86.7661 42.2399 87.5261 42.2399C88.0461 42.2399 88.5661 42.3399 89.0861 42.5399C89.6061 42.6999 90.1461 42.8999 90.7061 43.1399C91.8261 43.6599 92.9261 44.0799 94.0061 44.3999C95.0861 44.6799 96.4261 44.8199 98.0261 44.8199C99.4261 44.8199 100.506 44.5999 101.266 44.1599C102.066 43.7199 102.466 43.1199 102.466 42.3599C102.466 41.7999 102.286 41.3599 101.926 41.0399C101.606 40.6799 100.986 40.3599 100.066 40.0799C99.1461 39.7999 97.6861 39.4599 95.6861 39.0599C92.1261 38.3799 89.5661 37.3599 88.0061 35.9999C86.4461 34.6399 85.6661 32.7399 85.6661 30.2999C85.6661 28.4999 86.2061 26.8799 87.2861 25.4399C88.4061 23.9999 89.9261 22.8799 91.8461 22.0799C93.7661 21.2399 95.9261 20.8199 98.3261 20.8199C100.046 20.8199 101.726 21.0399 103.366 21.4799C105.006 21.9199 106.466 22.5399 107.746 23.3399C108.986 24.0999 109.606 25.2199 109.606 26.6999C109.606 27.6599 109.346 28.4599 108.826 29.0999C108.306 29.7399 107.666 30.0599 106.906 30.0599C105.986 30.0599 104.886 29.6999 103.606 28.9799C102.606 28.4599 101.686 28.0799 100.846 27.8399C100.046 27.5599 99.0861 27.4199 97.9661 27.4199C96.7261 27.4199 95.7461 27.6599 95.0261 28.1399C94.3061 28.5799 93.9461 29.1999 93.9461 29.9999C93.9461 30.8399 94.3661 31.4799 95.2061 31.9199C96.0461 32.3599 97.6661 32.7999 100.066 33.2399C102.746 33.7599 104.846 34.3999 106.366 35.1599C107.886 35.8799 108.986 36.7999 109.666 37.9199C110.346 39.0399 110.686 40.4599 110.686 42.1799C110.686 45.0199 109.506 47.2799 107.146 48.9599C104.826 50.6399 101.706 51.4799 97.7861 51.4799Z" fill="#FFA3A3"/>
<path d="M136.491 23.5199C136.851 22.6799 137.351 22.0599 137.991 21.6599C138.671 21.2599 139.391 21.0599 140.151 21.0599C141.311 21.0599 142.331 21.4399 143.211 22.1999C144.091 22.9199 144.531 23.7999 144.531 24.8399C144.531 25.3999 144.391 25.9599 144.111 26.5199L127.971 59.6399C127.571 60.4799 127.031 61.0999 126.351 61.4999C125.671 61.9399 124.951 62.1599 124.191 62.1599C123.071 62.1599 122.091 61.7999 121.251 61.0799C120.411 60.3599 119.991 59.4799 119.991 58.4399C119.991 57.7999 120.131 57.1999 120.411 56.6399L124.371 48.4199L113.691 26.5199C113.451 25.9599 113.331 25.4199 113.331 24.8999C113.331 23.8199 113.791 22.8999 114.711 22.1399C115.671 21.3799 116.751 20.9999 117.951 20.9999C118.751 20.9999 119.491 21.2199 120.171 21.6599C120.851 22.0599 121.391 22.6799 121.791 23.5199L129.231 39.7199L136.491 23.5199Z" fill="#FFA3A3"/>
<path d="M36.92 69.82C39.48 69.82 41.74 70.44 43.7 71.68C45.66 72.92 47.18 74.7 48.26 77.02C49.38 79.3 49.94 81.96 49.94 85C49.94 88.04 49.38 90.74 48.26 93.1C47.18 95.42 45.64 97.24 43.64 98.56C41.68 99.84 39.44 100.48 36.92 100.48C34.88 100.48 33.04 100.06 31.4 99.22C29.76 98.34 28.5 97.14 27.62 95.62V96.1C27.62 97.38 27.22 98.42 26.42 99.22C25.62 99.98 24.54 100.36 23.18 100.36C21.82 100.36 20.72 99.98 19.88 99.22C19.08 98.42 18.68 97.38 18.68 96.1V61.54C18.68 60.3 19.1 59.3 19.94 58.54C20.82 57.78 21.96 57.4 23.36 57.4C24.68 57.4 25.74 57.76 26.54 58.48C27.34 59.2 27.74 60.16 27.74 61.36V74.5C28.62 73.02 29.86 71.88 31.46 71.08C33.1 70.24 34.92 69.82 36.92 69.82ZM34.28 93.58C36.4 93.58 38.04 92.84 39.2 91.36C40.36 89.84 40.94 87.72 40.94 85C40.94 82.32 40.36 80.28 39.2 78.88C38.04 77.44 36.4 76.72 34.28 76.72C32.16 76.72 30.52 77.46 29.36 78.94C28.2 80.38 27.62 82.44 27.62 85.12C27.62 87.84 28.2 89.94 29.36 91.42C30.52 92.86 32.16 93.58 34.28 93.58Z" fill="#8AD8F5"/>
<path d="M66.9369 69.82C71.2569 69.82 74.4569 70.88 76.5369 73C78.6169 75.08 79.6569 78.28 79.6569 82.6V96.16C79.6569 97.48 79.2769 98.52 78.5169 99.28C77.7569 100 76.6969 100.36 75.3369 100.36C74.0569 100.36 73.0169 99.98 72.2169 99.22C71.4569 98.42 71.0769 97.4 71.0769 96.16V95.74C70.4769 97.22 69.4769 98.38 68.0769 99.22C66.6769 100.06 65.0369 100.48 63.1569 100.48C61.1569 100.48 59.3369 100.08 57.6969 99.28C56.0969 98.48 54.8169 97.36 53.8569 95.92C52.9369 94.48 52.4769 92.88 52.4769 91.12C52.4769 88.96 53.0169 87.26 54.0969 86.02C55.2169 84.78 56.9969 83.88 59.4369 83.32C61.8769 82.76 65.2169 82.48 69.4569 82.48H71.0169V81.4C71.0169 79.72 70.6369 78.5 69.8769 77.74C69.1569 76.98 67.9369 76.6 66.2169 76.6C64.4969 76.6 62.0169 77.2 58.7769 78.4C57.8569 78.84 57.0769 79.06 56.4369 79.06C55.5569 79.06 54.8569 78.76 54.3369 78.16C53.8169 77.52 53.5569 76.7 53.5569 75.7C53.5569 74.9 53.7369 74.24 54.0969 73.72C54.4569 73.2 55.0369 72.72 55.8369 72.28C57.2369 71.52 58.9369 70.92 60.9369 70.48C62.9769 70.04 64.9769 69.82 66.9369 69.82ZM65.1369 94.24C66.8969 94.24 68.3169 93.66 69.3969 92.5C70.4769 91.3 71.0169 89.76 71.0169 87.88V86.86H69.9969C66.7569 86.86 64.4769 87.12 63.1569 87.64C61.8769 88.16 61.2369 89.1 61.2369 90.46C61.2369 91.58 61.5969 92.5 62.3169 93.22C63.0769 93.9 64.0169 94.24 65.1369 94.24Z" fill="#8AD8F5"/>
<path d="M102.871 69.82C105.431 69.82 107.691 70.44 109.651 71.68C111.611 72.92 113.131 74.7 114.211 77.02C115.331 79.3 115.891 81.96 115.891 85C115.891 88.04 115.331 90.74 114.211 93.1C113.131 95.42 111.591 97.24 109.591 98.56C107.631 99.84 105.391 100.48 102.871 100.48C100.831 100.48 98.9908 100.06 97.3508 99.22C95.7108 98.34 94.4508 97.14 93.5708 95.62V96.1C93.5708 97.38 93.1708 98.42 92.3708 99.22C91.5708 99.98 90.4908 100.36 89.1308 100.36C87.7708 100.36 86.6708 99.98 85.8308 99.22C85.0308 98.42 84.6308 97.38 84.6308 96.1V61.54C84.6308 60.3 85.0508 59.3 85.8908 58.54C86.7708 57.78 87.9108 57.4 89.3108 57.4C90.6308 57.4 91.6908 57.76 92.4908 58.48C93.2908 59.2 93.6908 60.16 93.6908 61.36V74.5C94.5708 73.02 95.8108 71.88 97.4108 71.08C99.0508 70.24 100.871 69.82 102.871 69.82ZM100.231 93.58C102.351 93.58 103.991 92.84 105.151 91.36C106.311 89.84 106.891 87.72 106.891 85C106.891 82.32 106.311 80.28 105.151 78.88C103.991 77.44 102.351 76.72 100.231 76.72C98.1108 76.72 96.4708 77.46 95.3108 78.94C94.1508 80.38 93.5708 82.44 93.5708 85.12C93.5708 87.84 94.1508 89.94 95.3108 91.42C96.4708 92.86 98.1108 93.58 100.231 93.58Z" fill="#8AD8F5"/>
<path d="M139.142 72.52C139.502 71.68 140.002 71.06 140.642 70.66C141.322 70.26 142.042 70.06 142.802 70.06C143.962 70.06 144.982 70.44 145.862 71.2C146.742 71.92 147.182 72.8 147.182 73.84C147.182 74.4 147.042 74.96 146.762 75.52L130.622 108.64C130.222 109.48 129.682 110.1 129.002 110.5C128.322 110.94 127.602 111.16 126.842 111.16C125.722 111.16 124.742 110.8 123.902 110.08C123.062 109.36 122.642 108.48 122.642 107.44C122.642 106.8 122.782 106.2 123.062 105.64L127.022 97.42L116.342 75.52C116.102 74.96 115.982 74.42 115.982 73.9C115.982 72.82 116.442 71.9 117.362 71.14C118.322 70.38 119.402 70 120.602 70C121.402 70 122.142 70.22 122.822 70.66C123.502 71.06 124.042 71.68 124.442 72.52L131.882 88.72L139.142 72.52Z" fill="#8AD8F5"/>
<path d="M135 13C135 16.3137 132.314 19 129 19C125.686 19 123 16.3137 123 13C123 9.68629 125.686 7 129 7C132.314 7 135 9.68629 135 13Z" fill="#FFE292"/>
<path d="M130 38C129.5 38.5 129 38.5 128.5 38V40H130V38Z" fill="#FFA3A3"/>
<path d="M132.5 87C132 87.5 131.5 87.5 131 87V89H132.5V87Z" fill="#8AD8F5"/>
</svg>
